<?xml version="1.0" encoding="iso-8859-1"?>
<!-- Generator: Adobe Illustrator 16.0.0, SVG Export Plug-In . SVG Version: 6.00 Build 0)  -->
<!DOCTYPE svg PUBLIC "-//W3C//DTD SVG 1.1//EN" "http://www.w3.org/Graphics/SVG/1.1/DTD/svg11.dtd">
<svg version="1.1" id="Capa_1" xmlns="http://www.w3.org/2000/svg" xmlns:xlink="http://www.w3.org/1999/xlink" x="0px" y="0px"
	 width="492.454px" height="492.453px" viewBox="0 0 492.454 492.453" style="enable-background:new 0 0 492.454 492.453;"
	 xml:space="preserve">
<g>
	<g>
		<g>
			<path d="M437.424,341.32c-18.311,0-33.149,14.843-33.149,33.151v51.672H88.186v-51.672c0-18.311-14.848-33.151-33.156-33.151
				c-18.311,0-33.152,14.843-33.152,33.152v84.828c0,18.31,14.842,33.152,33.152,33.152h382.396c18.31,0,33.15-14.844,33.15-33.152
				v-84.828C470.577,356.163,455.733,341.32,437.424,341.32z"/>
			<path d="M128.409,140.528h54.57v214.324c0,14.298,11.576,25.873,25.869,25.873h74.771c14.298,0,25.872-11.575,25.872-25.873
				V140.528h54.555c4.791,0,9.096-2.887,10.924-7.303c1.832-4.436,0.826-9.52-2.555-12.904L256.233,4.137
				c-5.521-5.516-14.49-5.516-20.007,0L120.042,120.321c-3.385,3.385-4.391,8.469-2.56,12.904
				C119.312,137.641,123.619,140.528,128.409,140.528z"/>
		</g>
	</g>
</g>
<g>
</g>
<g>
</g>
<g>
</g>
<g>
</g>
<g>
</g>
<g>
</g>
<g>
</g>
<g>
</g>
<g>
</g>
<g>
</g>
<g>
</g>
<g>
</g>
<g>
</g>
<g>
</g>
<g>
</g>
</svg>
